<svg width="108" height="108" viewBox="0 0 108 108" fill="none" xmlns="http://www.w3.org/2000/svg">
<path d="M81 35.1C81 50.0117 68.9117 62.1 54 62.1M81 35.1C81 20.1883 68.9117 8.10001 54 8.10001M81 35.1H27M54 62.1C39.0883 62.1 27 50.0117 27 35.1M54 62.1C59.9647 62.1 64.8 50.0117 64.8 35.1C64.8 20.1883 59.9647 8.10001 54 8.10001M54 62.1C48.0353 62.1 43.2 50.0117 43.2 35.1C43.2 20.1883 48.0353 8.10001 54 8.10001M27 35.1C27 20.1883 39.0883 8.10001 54 8.10001M64.8 89.1C64.8 95.0647 59.9647 99.9 54 99.9C48.0353 99.9 43.2 95.0647 43.2 89.1M64.8 89.1C64.8 83.1353 59.9647 78.3 54 78.3C48.0353 78.3 43.2 83.1353 43.2 89.1M64.8 89.1H97.2M43.2 89.1H10.8" stroke="#E2E2E2" stroke-width="6" stroke-linecap="round" stroke-linejoin="round"/>
</svg>
